svg xmlns="http://www.w3.org/2000/svg" version="1.1" xmlns:xlink="http://www.w3.org/1999/xlink" xmlns:svgjs="http://svgjs.dev/svgjs" width="1000" height="1000" viewBox="0 0 1000 1000"><rect width="1000" height="1000" fill="#1b4571"></rect><g transform="matrix(0.7,0,0,0.7,149.57575757575756,282.1265587044535)"><svg viewBox="0 0 396 247" data-background-color="#1b4571" preserveAspectRatio="xMidYMid meet" height="623" width="1000" xmlns="http://www.w3.org/2000/svg" xmlns:xlink="http://www.w3.org/1999/xlink"><g id="tight-bounds" transform="matrix(1,0,0,1,0.2400000000000091,-0.09999999999999432)"><svg viewBox="0 0 395.52 247.2" height="247.2" width="395.52"><g><svg></svg></g><g><svg viewBox="0 0 395.52 247.2" height="247.2" width="395.52"><g transform="matrix(1,0,0,1,39.55199999999999,92.79985893915305)"><svg viewBox="0 0 316.416 61.60028212169388" height="61.60028212169388" width="316.416"><g><svg viewBox="0 0 316.416 61.60028212169388" height="61.60028212169388" width="316.416"><g><svg viewBox="0 0 316.416 61.60028212169388" height="61.60028212169388" width="316.416"><g><svg viewBox="0 0 316.416 61.60028212169388" height="61.60028212169388" width="316.416"><g><svg viewBox="0 0 316.416 61.60028212169388" height="61.60028212169388" width="316.416"><g><svg viewBox="0 0 316.416 61.60028212169388" height="61.60028212169388" width="316.416"><g transform="matrix(1,0,0,1,0,0)"><svg width="316.416" viewBox="1.6100000143051147 -32.63999938964844 168.89999389648438 32.880001068115234" height="61.60028212169388" data-palette-color="#ffffff"><path d="M10.6 0.24Q8.2 0.24 6.14-0.28 4.08-0.81 2.84-1.55 1.61-2.29 1.61-2.91L1.61-2.91Q1.61-3.25 1.89-3.81 2.17-4.37 2.54-4.81 2.91-5.25 3.13-5.25L3.13-5.25Q3.32-5.25 3.98-4.86L3.98-4.86Q5.49-4.08 6.98-3.56 8.47-3.05 10.6-3.05L10.6-3.05Q12.26-3.05 13.55-3.69 14.84-4.32 15.56-5.48 16.28-6.64 16.28-8.15L16.28-8.15Q16.28-9.77 15.42-10.83 14.55-11.89 13.32-12.51 12.08-13.13 9.74-14.06L9.74-14.06Q7.2-15.04 5.73-15.88 4.25-16.72 3.21-18.33 2.17-19.95 2.17-22.61L2.17-22.61Q2.17-24.93 3.37-26.77 4.57-28.61 6.76-29.64 8.96-30.66 11.82-30.66L11.82-30.66Q13.11-30.66 14.77-30.31 16.43-29.96 17.61-29.35 18.8-28.74 18.8-28L18.8-28Q18.8-27.69 18.54-27.14 18.29-26.59 17.94-26.15 17.6-25.71 17.41-25.71L17.41-25.71Q17.19-25.71 16.53-26.07L16.53-26.07Q15.43-26.66 14.36-27.01 13.28-27.37 11.74-27.37L11.74-27.37Q9.23-27.37 7.68-26.07 6.13-24.78 6.13-22.46L6.13-22.46Q6.13-21.07 6.81-20.17 7.5-19.26 8.54-18.73 9.59-18.19 11.47-17.48L11.47-17.48Q11.6-17.46 12.04-17.29L12.04-17.29Q14.62-16.28 16.27-15.34 17.92-14.4 19.08-12.65 20.24-10.89 20.24-8.15L20.24-8.15Q20.24-5.59 19.06-3.69 17.87-1.78 15.69-0.77 13.5 0.24 10.6 0.24L10.6 0.24ZM31.96 0.24Q29.78 0.24 28.07-1.07 26.36-2.39 26.36-5.74L26.36-5.74 26.36-19.58 24.19-19.58Q23.73-19.58 23.52-19.89 23.31-20.19 23.31-20.87L23.31-20.87 23.31-21.41Q23.31-22.09 23.52-22.4 23.73-22.71 24.19-22.71L24.19-22.71 26.36-22.71 26.88-27.25Q26.93-28.2 28.27-28.2L28.27-28.2 28.68-28.2Q29.37-28.2 29.68-27.97 30-27.73 30-27.25L30-27.25 30-22.71 33.64-22.71Q34.1-22.71 34.31-22.4 34.52-22.09 34.52-21.41L34.52-21.41 34.52-20.87Q34.52-20.19 34.31-19.89 34.1-19.58 33.64-19.58L33.64-19.58 30-19.58 30-6.08Q30-4.3 30.62-3.59 31.25-2.88 32.32-2.88L32.32-2.88Q33.15-2.88 33.6-2.98 34.06-3.08 34.2-3.08L34.2-3.08Q34.59-3.08 34.85-2.29 35.1-1.51 35.1-1.05L35.1-1.05Q35.1 0.24 31.96 0.24L31.96 0.24ZM49.6 0.24Q44.21 0.24 41.58-2.58 38.96-5.4 38.96-11.21L38.96-11.21Q38.96-16.97 41.52-19.96 44.09-22.95 49.07-22.95L49.07-22.95Q53.51-22.95 55.77-20.07 58.03-17.19 58.03-11.62L58.03-11.62Q58.03-11.38 57.77-10.95 57.51-10.52 57.16-10.19 56.81-9.86 56.56-9.86L56.56-9.86 42.87-9.86Q43.13-6.23 44.73-4.55 46.33-2.88 49.56-2.88L49.56-2.88Q51.36-2.88 52.67-3.32 53.97-3.76 55.2-4.39L55.2-4.39Q55.32-4.44 55.56-4.57 55.81-4.69 55.9-4.69L55.9-4.69Q56.17-4.69 56.53-4.26 56.88-3.83 57.14-3.31 57.39-2.78 57.39-2.54L57.39-2.54Q57.39-2 56.32-1.34 55.24-0.68 53.45-0.22 51.66 0.24 49.6 0.24L49.6 0.24ZM42.87-12.99L54.15-12.99Q54.15-19.82 48.95-19.82L48.95-19.82Q43.35-19.82 42.87-12.99L42.87-12.99ZM69.13 0.24Q66.96 0.24 65.25-1.07 63.54-2.39 63.54-5.74L63.54-5.74 63.54-31.69Q63.54-32.64 65.28-32.64L65.28-32.64 65.47-32.64Q67.18-32.64 67.18-31.69L67.18-31.69 67.18-6.08Q67.18-4.3 67.81-3.59 68.45-2.88 69.52-2.88L69.52-2.88Q70.33-2.88 70.79-2.98 71.26-3.08 71.4-3.08L71.4-3.08Q71.79-3.08 72.05-2.29 72.31-1.51 72.31-1.05L72.31-1.05Q72.31 0.24 69.13 0.24L69.13 0.24ZM82.05 0.24Q79.87 0.24 78.16-1.07 76.45-2.39 76.45-5.74L76.45-5.74 76.45-31.69Q76.45-32.64 78.19-32.64L78.19-32.64 78.38-32.64Q80.09-32.64 80.09-31.69L80.09-31.69 80.09-6.08Q80.09-4.3 80.73-3.59 81.36-2.88 82.44-2.88L82.44-2.88Q83.24-2.88 83.71-2.98 84.17-3.08 84.32-3.08L84.32-3.08Q84.71-3.08 84.96-2.29 85.22-1.51 85.22-1.05L85.22-1.05Q85.22 0.24 82.05 0.24L82.05 0.24ZM88.2 0.07Q87.22 0.07 86.78-0.11 86.34-0.29 86.34-0.66L86.34-0.66Q86.34-0.83 86.46-1.25L86.46-1.25 96.74-29.79Q96.98-30.49 98.47-30.49L98.47-30.49 99.74-30.49Q101.23-30.49 101.48-29.79L101.48-29.79 111.76-1.22Q111.88-0.95 111.88-0.66L111.88-0.66Q111.88 0.07 110.05 0.07L110.05 0.07 109.68 0.07Q108.17 0.07 107.92-0.61L107.92-0.61 105.38-7.74 92.64-7.74 90.15-0.61Q89.93 0.07 88.42 0.07L88.42 0.07 88.2 0.07ZM93.84-11.04L104.21-11.04 99.67-23.95Q99.47-24.49 99.35-25.17 99.23-25.85 99.13-26.49L99.13-26.49 99.04-26.49Q98.74-24.85 98.38-23.95L98.38-23.95 93.84-11.04ZM118.08 0.07Q117.15 0.07 116.73-0.16 116.32-0.39 116.32-0.88L116.32-0.88 116.32-16.11Q116.32-18.95 116.05-20.2 115.78-21.46 115.78-21.58L115.78-21.58Q115.78-22.12 116.6-22.35 117.42-22.58 118.15-22.58L118.15-22.58Q118.74-22.58 119.03-21.96 119.32-21.34 119.54-20.21L119.54-20.21 119.66-19.7Q121.98-22.95 124.69-22.95L124.69-22.95Q125.94-22.95 126.57-22.5 127.21-22.05 127.21-21.29L127.21-21.29Q127.21-20.56 126.95-19.74 126.69-18.92 126.35-18.92L126.35-18.92Q126.18-18.92 125.74-19.07L125.74-19.07Q125.35-19.24 124.96-19.32 124.57-19.41 123.96-19.41L123.96-19.41Q122.96-19.41 122.07-18.82 121.18-18.24 120.57-17.53 119.96-16.82 119.96-16.75L119.96-16.75 119.96-0.88Q119.96-0.39 119.54-0.16 119.13 0.07 118.25 0.07L118.25 0.07 118.08 0.07ZM141.22 0.24Q135.82 0.24 133.17-2.53 130.52-5.3 130.52-11.45L130.52-11.45Q130.52-17.68 133.48-20.31 136.43-22.95 140.83-22.95L140.83-22.95Q142.46-22.95 143.98-22.67 145.49-22.39 146.42-21.92 147.35-21.46 147.35-20.95L147.35-20.95Q147.35-20.61 147.11-20.04 146.88-19.48 146.55-19.06 146.22-18.63 145.95-18.63L145.95-18.63Q145.88-18.63 145.73-18.69 145.59-18.75 145.47-18.8L145.47-18.8Q143.27-19.82 140.73-19.82L140.73-19.82Q137.73-19.82 136.09-17.86 134.46-15.89 134.46-11.55L134.46-11.55Q134.46-8.47 135.11-6.58 135.77-4.69 137.25-3.78 138.73-2.88 141.19-2.88L141.19-2.88Q143.9-2.88 146.08-4L146.08-4Q146.3-4.05 146.41-4.11 146.52-4.17 146.56-4.17L146.56-4.17Q146.83-4.17 147.17-3.76 147.52-3.34 147.77-2.81 148.03-2.27 148.03-1.95L148.03-1.95Q148.03-1.44 147.1-0.93 146.17-0.42 144.6-0.09 143.02 0.24 141.22 0.24L141.22 0.24ZM155.06 0.07Q153.32 0.07 153.32-0.88L153.32-0.88 153.32-31.69Q153.32-32.64 155.06-32.64L155.06-32.64 155.23-32.64Q156.99-32.64 156.99-31.69L156.99-31.69 156.99-19.97Q158.26-21.26 159.97-22.11 161.67-22.95 163.6-22.95L163.6-22.95Q166.34-22.95 168.42-21.41 170.51-19.87 170.51-15.94L170.51-15.94 170.51-0.88Q170.51 0.07 168.78 0.07L168.78 0.07 168.61 0.07Q166.85 0.07 166.85-0.88L166.85-0.88 166.85-15.58Q166.85-17.55 165.73-18.68 164.6-19.8 162.43-19.8L162.43-19.8Q160.99-19.8 159.78-19.12 158.57-18.43 157.78-17.64 156.99-16.85 156.99-16.75L156.99-16.75 156.99-0.88Q156.99 0.07 155.23 0.07L155.23 0.07 155.06 0.07Z" opacity="1" transform="matrix(1,0,0,1,0,0)" fill="#ffffff" class="undefined-text-0" data-fill-palette-color="primary" id="text-0"></path></svg></g></svg></g></svg></g></svg></g></svg></g></svg></g></svg></g><g mask="url(#7b09c01e-bdbc-4db4-ba3f-75294072aa7a)"><g transform="matrix(3.9231997605468893, 0, 0, 3.9231997605468893, 23.962238635117274, 1)"><svg xmlns="http://www.w3.org/2000/svg" xmlns:xlink="http://www.w3.org/1999/xlink" version="1.1" x="0" y="0" viewBox="5.699999809265137 18.700000762939453 88.60000610351562 62.500003814697266" style="enable-background:new 0 0 100 100;" xml:space="preserve" height="62.500003814697266" width="88.60000610351562" class="icon-none" data-fill-palette-color="accent" id="none"><path d="M94.3 71.1H53.7v-2.3h32.9v-1.7H53.7V47.7L83 63.2l0.8-1.5L53.7 45.7v-2.7l29.1 15.4 0.8-1.5L53.7 41.1V31H52v9.2l-5.4-2.9V18.7h-1.7v17.7l-13.4-7.1v0l0 0 0 0 0 0L5.7 43.5v6.6l5.7-3.1v25.8h20.1v0H52v8.4h1.7v-8.4h40.6V71.1zM52 67.1h-5.4V43.9l5.4 2.9V67.1zM52 42.2v2.7L46.5 42v-2.7L52 42.2zM44.8 38.4V41L31.4 34v-2.7L44.8 38.4zM17.2 43.8L31.4 36v0L44.8 43v24h-9.1V57H28v10.1h-4.3-6.5V43.8zM44.8 68.8v2.3h-9.1v-2.3H44.8zM46.5 71.1v-2.3H52v2.3H46.5z" fill="#bf2051" data-fill-palette-color="accent"></path></svg></g></g></svg></g><defs><mask id="86ce7ab9-9f84-4a21-9594-bce3940b8e91"><rect width="640" height="400" fill="white"></rect><rect width="348.05760000000004" height="90.6849785260159" fill="black" x="145.97119999999998" y="154.65751073699204" id="transform-me" transform="matrix(1,0,0,1,-122.24000000000001,-76.4)"></rect></mask><mask id="7b09c01e-bdbc-4db4-ba3f-75294072aa7a"><rect width="640" height="400" fill="white"></rect><rect width="348.05760000000004" height="90.6849785260159" fill="black" x="145.97119999999998" y="154.65751073699204" id="transform-me" transform="matrix(1,0,0,1,-122.24000000000001,-76.4)"></rect></mask></defs></svg><rect width="395.52" height="247.2" fill="none" stroke="none" visibility="hidden"></rect></g></svg></g></svg>